<svg width="98" height="27" viewBox="0 0 98 27" fill="none" xmlns="http://www.w3.org/2000/svg">
<path d="M11.7422 17.3398C11.7422 16.2852 12.043 14.668 12.6445 12.4883C10.7617 12.5352 9.32031 12.5898 8.32031 12.6523C8.01562 13.207 7.73828 13.7344 7.48828 14.2344L6.76172 15.6758C5.80078 17.5664 4.9375 18.8125 4.17188 19.4141C3.58594 19.8828 2.96484 20.1172 2.30859 20.1172C1.80859 20.1172 1.42969 19.9531 1.17188 19.625C1.07812 19.4922 1.02344 19.3672 1.00781 19.25C0.992188 19.125 1.01953 19.043 1.08984 19.0039C1.98828 18.668 2.71875 18.1562 3.28125 17.4688C3.77344 16.8516 4.26562 16.0977 4.75781 15.207L6.08203 12.8398L5.34375 12.9453C4.875 13.0312 4.64062 12.957 4.64062 12.7227C4.64062 12.4883 4.78125 12.2656 5.0625 12.0547C5.55469 11.6875 6.03516 11.4453 6.50391 11.3281L7.00781 11.2109C8.28906 9.09375 9.26562 7.61328 9.9375 6.76953C10.6172 5.92578 11.2344 5.22266 11.7891 4.66016C12.3516 4.09766 12.9414 3.60156 13.5586 3.17188C14.9102 2.24219 16.2422 1.77734 17.5547 1.77734C17.9531 1.77734 18.2227 1.85938 18.3633 2.02344C18.5977 2.28125 18.6719 2.55859 18.5859 2.85547C18.5 3.14453 18.3594 3.5625 18.1641 4.10938C16.9141 7.51562 16.1523 9.625 15.8789 10.4375C16.0039 10.4297 16.1172 10.4258 16.2188 10.4258H16.4766C17.3516 10.4258 17.8203 10.5117 17.8828 10.6836C17.8984 10.7383 17.9062 10.8398 17.9062 10.9883C17.9062 11.1289 17.8594 11.293 17.7656 11.4805C17.6797 11.668 17.5352 11.8281 17.332 11.9609C16.918 12.2422 16.2227 12.4062 15.2461 12.4531C14.7148 14.2891 14.4102 15.5586 14.332 16.2617C14.2617 16.9648 14.2852 17.4414 14.4023 17.6914C14.5273 17.9336 14.6992 18.0547 14.918 18.0547C15.1445 18.0547 15.3281 18.0352 15.4688 17.9961C15.6094 17.9492 15.7344 17.8984 15.8438 17.8438L16.1484 17.7031C16.2266 17.6562 16.3047 17.6328 16.3828 17.6328C16.4688 17.6328 16.5391 17.6875 16.5938 17.7969C16.6484 17.8984 16.6758 18.0352 16.6758 18.207C16.6758 18.3789 16.6016 18.5859 16.4531 18.8281C16.3125 19.0625 16.125 19.2734 15.8906 19.4609C15.3438 19.8984 14.7266 20.1172 14.0391 20.1172C12.9844 20.1172 12.2812 19.6484 11.9297 18.7109C11.8047 18.3828 11.7422 18.0898 11.7422 17.832V17.3398ZM9.39844 10.8008C10.7891 10.6211 12.0781 10.5156 13.2656 10.4844C13.4844 9.8125 13.7188 9.14844 13.9688 8.49219L14.6953 6.61719C14.9453 6.02344 15.1914 5.46094 15.4336 4.92969L16.1133 3.48828C14.4883 3.91016 12.8828 5.3125 11.2969 7.69531C10.9609 8.19531 10.6328 8.71094 10.3125 9.24219L9.39844 10.8008ZM25.5487 10.0859C25.0956 10.0859 24.2675 10.7422 23.0644 12.0547C22.1659 13.0781 21.5136 13.8477 21.1073 14.3633L20.0527 15.6992C19.5995 16.5586 19.2441 17.2734 18.9862 17.8438L18.3534 19.2031C18.1894 19.5391 18.0448 19.7773 17.9198 19.918C17.8027 20.0508 17.6386 20.1172 17.4277 20.1172C17.2245 20.1172 17.0253 20.0781 16.83 20C16.6425 19.9297 16.4784 19.8359 16.3378 19.7188C16.0409 19.4688 15.8925 19.1953 15.8925 18.8984C15.8925 18.7812 15.9784 18.5508 16.1503 18.207L16.5956 17.2578C16.7362 16.9766 16.9003 16.6172 17.0878 16.1797L17.7441 14.5742C18.6659 12.2695 19.1269 10.7812 19.1269 10.1094C19.1269 9.75 19.0097 9.48438 18.7753 9.3125L18.5409 9.14844C18.4628 9.09375 18.4237 9 18.4237 8.86719C18.4237 8.72656 18.4745 8.59375 18.5761 8.46875C18.6855 8.34375 18.8261 8.23438 18.998 8.14062C19.3495 7.96094 19.7011 7.87109 20.0527 7.87109C20.412 7.87109 20.6933 7.91016 20.8964 7.98828C21.0995 8.06641 21.2753 8.17188 21.4237 8.30469C21.7206 8.57812 21.8691 8.86328 21.8691 9.16016C21.8691 9.45703 21.83 9.75781 21.7519 10.0625C21.6737 10.3594 21.5761 10.6641 21.4589 10.9766C21.3417 11.2812 21.2167 11.5781 21.0839 11.8672C20.7714 12.5391 20.5761 12.9531 20.498 13.1094C20.4277 13.2578 20.4081 13.3125 20.4394 13.2734C21.8691 11.4219 22.7284 10.3281 23.0175 9.99219C23.6191 9.29688 24.0878 8.82031 24.4237 8.5625C25.0409 8.10156 25.623 7.87109 26.1698 7.87109C26.7245 7.87109 27.1659 8.04297 27.4941 8.38672C27.8222 8.73047 27.9862 9.18359 27.9862 9.74609C27.9862 10.2383 27.8612 10.8164 27.6112 11.4805C27.3612 12.1445 27.1933 12.6094 27.1073 12.875L28.83 10.6016L29.7909 9.45312C30.3691 8.80469 30.8769 8.37891 31.3144 8.17578C31.7519 7.97266 32.1073 7.87109 32.3808 7.87109C32.662 7.87109 32.9355 7.92188 33.2011 8.02344C33.4745 8.125 33.705 8.26953 33.8925 8.45703C34.2909 8.83984 34.4902 9.34766 34.4902 9.98047C34.4902 10.5898 34.3495 11.2148 34.0683 11.8555C33.787 12.4961 33.5409 13.0234 33.33 13.4375C33.1191 13.8438 32.9159 14.2539 32.7206 14.668C32.1503 15.9102 31.8652 16.832 31.8652 17.4336C31.8652 17.8555 32.037 18.0664 32.3808 18.0664C32.7089 18.0664 33.0058 17.9961 33.2714 17.8555C33.5448 17.7148 33.7206 17.6445 33.7987 17.6445C33.9628 17.6445 34.0448 17.7266 34.0448 17.8906C34.0448 18.5859 33.6894 19.168 32.9784 19.6367C32.5019 19.957 32.0644 20.1172 31.6659 20.1172C31.2753 20.1172 30.9589 20.0703 30.7167 19.9766C30.4745 19.8828 30.2558 19.7344 30.0605 19.5312C29.623 19.0781 29.4042 18.5117 29.4042 17.832C29.4042 17.1523 29.4902 16.5273 29.662 15.957C29.8339 15.3867 30.037 14.8359 30.2714 14.3047C30.5058 13.7656 30.7402 13.2734 30.9745 12.8281C31.2167 12.375 31.4003 12.0156 31.5253 11.75C31.7753 11.2031 31.9003 10.8008 31.9003 10.543C31.9003 10.2383 31.7402 10.0859 31.4198 10.0859C30.998 10.0859 30.2402 10.7852 29.1464 12.1836C28.3183 13.2695 27.7441 14.0508 27.4237 14.5273L26.6152 15.6992C26.162 16.5586 25.8144 17.2734 25.5722 17.8438L24.9745 19.2031C24.8261 19.5391 24.6972 19.7773 24.5878 19.918C24.4784 20.0508 24.3261 20.1172 24.1308 20.1172C23.9355 20.1172 23.7441 20.0859 23.5566 20.0234C23.3769 19.9609 23.2206 19.8789 23.0878 19.7773C22.7831 19.5508 22.6308 19.3125 22.6308 19.0625C22.6308 18.8047 22.7128 18.457 22.8769 18.0195C23.0487 17.5742 23.2597 17.0781 23.5097 16.5312L25.1503 13.0625C25.7362 11.7734 26.0292 10.957 26.0292 10.6133C26.0292 10.2617 25.8691 10.0859 25.5487 10.0859ZM26.7089 13.3906C26.7167 13.3906 26.7206 13.3867 26.7206 13.3789L26.7323 13.3555C26.7167 13.3711 26.7089 13.3828 26.7089 13.3906ZM34.3397 18.8633C34.2459 18.6055 34.1991 18.3125 34.1991 17.9844C34.1991 17.6484 34.2537 17.2773 34.3631 16.8711C34.4803 16.457 34.6287 16.0273 34.8084 15.582C34.9881 15.1367 35.1834 14.6797 35.3944 14.2109L36.0272 12.8047C36.8397 11 37.1405 9.92969 36.9295 9.59375C36.8358 9.44531 36.66 9.29688 36.4022 9.14844C36.3084 9.09375 36.2616 9 36.2616 8.86719C36.2616 8.72656 36.3162 8.59375 36.4256 8.46875C36.5428 8.34375 36.6912 8.23438 36.8709 8.14062C37.2537 7.96094 37.6366 7.87109 38.0194 7.87109C38.4022 7.87109 38.6912 7.91406 38.8866 8C39.0897 8.07812 39.2537 8.17969 39.3787 8.30469C39.6366 8.5625 39.7655 8.84766 39.7655 9.16016C39.7655 9.47266 39.7147 9.82422 39.6131 10.2148C39.5116 10.5977 39.3787 11.0156 39.2147 11.4688C39.0506 11.9219 38.8709 12.3906 38.6756 12.875C38.1366 14.1406 37.7733 14.9766 37.5858 15.3828L37.1522 16.2852C36.91 16.8242 36.7889 17.2031 36.7889 17.4219C36.7889 17.6406 36.8241 17.7969 36.8944 17.8906C36.9647 17.9766 37.0897 18.0195 37.2694 18.0195C37.4569 18.0195 37.66 17.9492 37.8787 17.8086C38.1053 17.668 38.3475 17.4805 38.6053 17.2461C38.8631 17.0117 39.1287 16.7422 39.4022 16.4375C39.6834 16.125 39.9569 15.8008 40.2225 15.4648C40.9178 14.6055 41.4334 13.8672 41.7694 13.25C43.4569 10.1406 44.3514 8.51562 44.453 8.375C44.7108 8.03906 44.9686 7.87109 45.2264 7.87109C45.492 7.87109 45.7225 7.90234 45.9178 7.96484C46.1131 8.01953 46.2811 8.10156 46.4217 8.21094C46.7342 8.4375 46.828 8.69141 46.703 8.97266C46.5858 9.25391 46.4412 9.64062 46.2694 10.1328C44.785 14.4375 43.8202 17.1211 43.3748 18.1836C42.9373 19.2461 42.5545 20.0977 42.2264 20.7383C41.8983 21.3867 41.5116 22.0391 41.0662 22.6953C40.6287 23.3516 40.16 23.9492 39.66 24.4883C38.5194 25.707 37.4491 26.3594 36.4491 26.4453C36.0662 26.4766 35.7616 26.4219 35.535 26.2812C35.1444 26.0469 34.9491 25.8242 34.9491 25.6133C34.9491 25.4023 35.1248 25.2539 35.4764 25.168C35.8358 25.0898 36.203 24.9258 36.578 24.6758C36.9608 24.4336 37.328 24.1484 37.6795 23.8203C38.7108 22.8359 39.5116 21.7656 40.0819 20.6094C40.5662 19.5938 40.9569 18.6328 41.2537 17.7266L42.1678 14.9375C41.9412 15.2109 41.6912 15.5312 41.4178 15.8984L40.5741 17.0234C39.8397 17.9531 39.2303 18.6133 38.7459 19.0039C37.8241 19.7461 36.9998 20.1172 36.2733 20.1172C35.3045 20.1172 34.66 19.6992 34.3397 18.8633ZM65.865 17.6328C66.0603 17.6328 66.158 17.7734 66.158 18.0547C66.158 18.3281 66.1072 18.5547 66.0056 18.7344C65.9041 18.9141 65.7869 19.0781 65.6541 19.2266C65.5213 19.375 65.3533 19.5156 65.1502 19.6484C64.6736 19.9609 64.1697 20.1172 63.6384 20.1172C63.115 20.1172 62.697 20.0547 62.3845 19.9297C62.0798 19.7969 61.8142 19.6016 61.5877 19.3438C61.1033 18.8047 60.8611 18.0586 60.8611 17.1055C60.8611 16.0898 61.0564 14.8516 61.447 13.3906C61.8377 11.9219 62.2127 10.668 62.572 9.62891C62.9392 8.58203 63.3142 7.58594 63.697 6.64062L64.7517 3.95703C63.5955 4.99609 62.1306 7.17969 60.3572 10.5078L57.5213 15.875C56.0056 18.7031 54.9236 20.1172 54.2752 20.1172C53.6423 20.1172 53.2088 19.8438 52.9744 19.2969C52.7634 18.7734 52.658 17.8867 52.658 16.6367C52.658 15.3789 52.7556 14.1758 52.9509 13.0273C53.1541 11.8711 53.408 10.7422 53.7127 9.64062C54.2439 7.69531 54.9314 5.76562 55.7752 3.85156C54.9548 4.3125 54.0447 5.33984 53.0447 6.93359C52.2791 8.20703 51.74 9.13672 51.4275 9.72266L48.4041 15.2891C47.1463 17.5781 46.1345 18.9922 45.3689 19.5312C44.8142 19.9219 44.2166 20.1172 43.5759 20.1172C43.0291 20.1172 42.6345 19.9453 42.3923 19.6016C42.2986 19.4609 42.2517 19.332 42.2517 19.2148C42.2517 19.0977 42.2869 19.0273 42.3572 19.0039C42.8416 18.8711 43.1853 18.7344 43.3884 18.5938C43.5838 18.4453 43.7791 18.2969 43.9744 18.1484C44.1697 17.9922 44.4548 17.668 44.8298 17.1758C45.2048 16.6758 45.6111 16.0781 46.0486 15.3828C46.4861 14.6797 46.9431 13.8945 47.4197 13.0273L48.908 10.2852C50.283 7.62891 51.7205 5.5 53.2205 3.89844C53.7517 3.32812 54.2752 2.88672 54.7908 2.57422C55.3064 2.20703 55.9041 1.96094 56.5838 1.83594C56.7713 1.79688 56.9431 1.77734 57.0994 1.77734C57.2634 1.77734 57.4431 1.80078 57.6384 1.84766C57.8416 1.89453 58.0173 1.96875 58.1658 2.07031C58.5095 2.30469 58.6111 2.61719 58.4705 3.00781C58.408 3.24219 58.2869 3.59375 58.1072 4.0625L57.4744 5.73828C55.9978 9.81641 55.1892 13.5273 55.0486 16.8711C55.4627 16.1602 55.8806 15.3828 56.3025 14.5391L57.6267 11.9258L59.0213 9.26562C61.1697 5.28125 63.1658 3 65.0095 2.42188C65.3923 2.29687 65.7127 2.23438 65.9705 2.23438C66.2283 2.23438 66.4314 2.26953 66.5798 2.33984C66.7283 2.40234 66.8611 2.48437 66.9783 2.58594C67.2517 2.83594 67.3455 3.09375 67.2595 3.35938C67.1736 3.61719 67.0603 3.94922 66.9197 4.35547L65.2205 9.3125L64.6111 11.2578C63.9392 13.5078 63.5408 15.2344 63.4158 16.4375C63.3689 16.9453 63.4236 17.3438 63.5798 17.6328C63.7439 17.9141 63.9666 18.0547 64.2478 18.0547C64.5291 18.0547 64.7478 18.0352 64.9041 17.9961C65.0681 17.9492 65.2088 17.8984 65.3259 17.8438L65.6306 17.7031C65.7166 17.6562 65.7947 17.6328 65.865 17.6328ZM72.4059 5.12891C72.2341 5.30859 72.0387 5.45703 71.82 5.57422C71.6012 5.68359 71.3708 5.75391 71.1286 5.78516C70.8864 5.80859 70.6559 5.76953 70.4372 5.66797C70.2262 5.56641 70.0427 5.42188 69.8864 5.23438C69.5505 4.84375 69.3825 4.44922 69.3825 4.05078C69.3825 3.65234 69.445 3.35547 69.57 3.16016C69.7028 2.95703 69.8669 2.79297 70.0622 2.66797C70.4372 2.42578 70.7887 2.30469 71.1169 2.30469C71.4528 2.30469 71.7106 2.32812 71.8903 2.375C72.0778 2.42188 72.2497 2.5 72.4059 2.60938C72.7887 2.86719 72.9802 3.18359 72.9802 3.55859C72.9802 3.92578 72.9255 4.23438 72.8161 4.48438C72.7145 4.72656 72.5778 4.94141 72.4059 5.12891ZM70.0036 17.8086C70.2067 17.8086 70.3083 17.9414 70.3083 18.207C70.3083 18.5586 70.1481 18.9219 69.8278 19.2969C69.3591 19.8438 68.7302 20.1172 67.9411 20.1172C67.0348 20.1172 66.4137 19.75 66.0778 19.0156C65.9528 18.7578 65.8903 18.4453 65.8903 18.0781C65.8903 17.7109 65.9528 17.3047 66.0778 16.8594C66.2106 16.4062 66.3708 15.9336 66.5583 15.4414C66.7536 14.9414 66.9645 14.4375 67.1911 13.9297L67.8122 12.4531C68.2653 11.3516 68.4919 10.625 68.4919 10.2734C68.4919 9.92188 68.4528 9.69141 68.3747 9.58203C68.3044 9.46484 68.2262 9.375 68.1403 9.3125L67.9059 9.14844C67.8278 9.09375 67.7887 9 67.7887 8.86719C67.7887 8.72656 67.8395 8.59375 67.9411 8.46875C68.0505 8.34375 68.1911 8.23438 68.363 8.14062C68.7145 7.96094 69.1247 7.87109 69.5934 7.87109C70.7419 7.87109 71.3161 8.17188 71.3161 8.77344C71.3161 9.47656 71.1325 10.2812 70.7653 11.1875C70.3981 12.0859 70.0856 12.8125 69.8278 13.3672L69.1247 14.9844C68.6091 16.1719 68.3512 17.0273 68.3512 17.5508C68.3512 17.8945 68.5231 18.0664 68.8669 18.0664C69.2028 18.0664 69.4567 18.0234 69.6286 17.9375C69.8005 17.8516 69.9255 17.8086 70.0036 17.8086ZM79.4742 10.0859C79.232 10.0859 78.8883 10.3203 78.443 10.7891C77.9977 11.25 77.6109 11.6719 77.2828 12.0547L76.2867 13.25L74.3648 15.6992C73.9117 16.5586 73.5563 17.2734 73.2984 17.8438L72.6656 19.2031C72.5016 19.5391 72.357 19.7773 72.232 19.918C72.1148 20.0508 71.9508 20.1172 71.7398 20.1172C71.5367 20.1172 71.3375 20.0781 71.1422 20C70.9547 19.9297 70.7906 19.8359 70.65 19.7188C70.3531 19.4688 70.2047 19.1953 70.2047 18.8984C70.2047 18.7812 70.2906 18.5508 70.4625 18.207L70.9078 17.2578C71.0484 16.9766 71.2125 16.6172 71.4 16.1797L72.0563 14.5742C72.9781 12.2695 73.4391 10.7812 73.4391 10.1094C73.4391 9.75 73.3219 9.48438 73.0875 9.3125L72.8531 9.14844C72.775 9.09375 72.7359 9 72.7359 8.86719C72.7359 8.72656 72.7867 8.59375 72.8883 8.46875C72.9977 8.34375 73.1383 8.23438 73.3102 8.14062C73.6617 7.96094 74.0133 7.87109 74.3648 7.87109C74.7242 7.87109 75.0016 7.91016 75.1969 7.98828C75.3922 8.06641 75.5563 8.17188 75.6891 8.30469C75.9781 8.57812 76.1227 8.86328 76.1227 9.16016C76.1227 9.45703 76.0836 9.75781 76.0055 10.0625C75.9352 10.3594 75.8414 10.6641 75.7242 10.9766C75.6148 11.2812 75.4977 11.582 75.3727 11.8789C75.2477 12.1758 75.1344 12.4336 75.0328 12.6523L74.7984 13.1562C74.7359 13.2812 74.7203 13.3203 74.7516 13.2734C75.6188 12.0703 76.1891 11.2969 76.4625 10.9531L77.2828 9.96875C77.8844 9.26562 78.357 8.80078 78.7008 8.57422C79.3961 8.10547 79.943 7.87109 80.3414 7.87109C80.7398 7.87109 81.0758 7.92188 81.3492 8.02344C81.6227 8.125 81.8609 8.26953 82.0641 8.45703C82.4938 8.85547 82.7086 9.36328 82.7086 9.98047C82.7086 10.5977 82.568 11.2422 82.2867 11.9141C82.0055 12.5859 81.7594 13.1328 81.5484 13.5547C81.3453 13.9688 81.15 14.3906 80.9625 14.8203C80.3766 16.125 80.0836 17.0742 80.0836 17.668C80.0836 17.9336 80.2945 18.0664 80.7164 18.0664C81.0445 18.0664 81.3414 17.9961 81.607 17.8555C81.8805 17.7148 82.0563 17.6445 82.1344 17.6445C82.2984 17.6445 82.3805 17.7266 82.3805 17.8906C82.3805 18.5859 82.025 19.168 81.3141 19.6367C80.8375 19.957 80.4 20.1172 80.0016 20.1172C79.6031 20.1172 79.2711 20.0742 79.0055 19.9883C78.7477 19.9023 78.5172 19.7656 78.3141 19.5781C77.8531 19.1641 77.6227 18.5859 77.6227 17.8438C77.6227 16.9375 77.9078 15.8047 78.4781 14.4453C78.8922 13.5156 79.1852 12.8789 79.357 12.5352L79.7555 11.7031C79.9977 11.2031 80.1188 10.8086 80.1188 10.5195C80.1188 10.2305 79.9039 10.0859 79.4742 10.0859ZM94.2886 17.6328C94.4527 17.6328 94.5347 17.7188 94.5347 17.8906C94.5347 18.5625 94.187 19.1406 93.4917 19.625C93.0308 19.9531 92.5933 20.1172 92.1792 20.1172C91.773 20.1172 91.4488 20.0703 91.2066 19.9766C90.9644 19.8828 90.7456 19.7344 90.5503 19.5312C90.1128 19.0625 89.8941 18.418 89.8941 17.5977C89.8941 17.4336 89.9253 17.1719 89.9878 16.8125C89.355 17.7891 88.812 18.4766 88.3589 18.875C87.4448 19.7031 86.5503 20.1172 85.6753 20.1172C84.2925 20.1172 83.3863 19.4922 82.9566 18.2422C82.8003 17.7812 82.7222 17.2031 82.7222 16.5078C82.7222 15.8125 82.8277 15.1094 83.0386 14.3984C83.2495 13.6875 83.5347 13.0117 83.8941 12.3711C84.2613 11.7305 84.6831 11.1367 85.1597 10.5898C85.6441 10.0352 86.1519 9.55469 86.6831 9.14844C87.8238 8.29688 88.855 7.87109 89.7769 7.87109C90.6988 7.87109 91.437 8.24609 91.9917 8.99609C93.3511 4.33984 94.3745 1.59375 95.062 0.757812C95.3511 0.414063 95.6558 0.242188 95.9761 0.242188C96.5073 0.242188 96.9097 0.394531 97.1831 0.699219C97.2691 0.800781 97.312 0.902344 97.312 1.00391C97.312 1.10547 97.2495 1.29297 97.1245 1.56641C96.9995 1.83984 96.8159 2.28125 96.5738 2.89062C95.8784 4.72656 95.3902 6.07031 95.1089 6.92188C94.3902 9.10156 93.9058 10.6016 93.6558 11.4219L93.0113 13.5898C92.4566 15.5195 92.1792 16.7461 92.1792 17.2695C92.1792 17.793 92.3706 18.0547 92.7534 18.0547C93.105 18.0547 93.3863 18.0078 93.5972 17.9141L94.0425 17.7031C94.1284 17.6562 94.2105 17.6328 94.2886 17.6328ZM86.2378 18.3594C87.0425 18.3594 87.9644 17.5742 89.0034 16.0039C90.0894 14.3789 90.8472 12.6094 91.2769 10.6953C91.2456 10.1641 91.023 9.77344 90.6089 9.52344C90.4683 9.4375 90.2534 9.39453 89.9644 9.39453C89.6831 9.39453 89.3511 9.5 88.9683 9.71094C88.5933 9.91406 88.2261 10.1914 87.8667 10.543C87.5152 10.8945 87.1831 11.3086 86.8706 11.7852C86.5659 12.2539 86.3003 12.7539 86.0738 13.2852C85.5816 14.4414 85.3355 15.5781 85.3355 16.6953C85.3355 17.8047 85.6363 18.3594 86.2378 18.3594Z" fill="#333333"/>
</svg>
