<?xml version="1.0" standalone="no"?><!DOCTYPE svg PUBLIC "-//W3C//DTD SVG 1.1//EN" "http://www.w3.org/Graphics/SVG/1.1/DTD/svg11.dtd"><svg t="1700042001289" class="icon" viewBox="0 0 1024 1024" version="1.1" xmlns="http://www.w3.org/2000/svg" p-id="1479" xmlns:xlink="http://www.w3.org/1999/xlink" width="200" height="200"><path d="M515.413333 234.496c-146.432-2.048-266.24 123.221333-266.24 273.066667V686.08c0 15.701333 12.288 28.330667 27.648 28.330667h470.016c15.36 0 27.648-12.629333 27.648-28.330667v-182.613333c0.341333-147.114667-116.053333-266.922667-259.072-268.970667zM512 181.248c15.018667 0 27.989333-13.312 27.989333-28.672V114.005333c0-15.36-12.970667-28.672-27.989333-28.672-15.018667 0-27.989333 13.312-27.989333 28.672v38.229334c0 15.701333 12.970667 29.013333 27.989333 29.013333zM748.544 219.818667l26.282667-26.965334c11.264-11.605333 11.264-30.72 0-42.325333s-27.989333-11.605333-39.253334 0l-26.282666 26.965333c-11.264 11.605333-11.264 28.672 0 40.277334 9.557333 13.312 27.989333 13.312 39.253333 2.048zM275.456 219.818667c11.264 11.605333 30.037333 11.605333 41.301333 0s11.264-28.672 0-40.277334l-27.989333-28.672c-9.216-9.557333-27.989333-9.557333-39.253333 0-11.264 11.605333-11.264 30.72 0 42.325334l25.941333 26.624zM802.816 771.754667H221.184c-15.018667 0-27.989333 13.312-27.989333 28.672s12.970667 28.672 27.989333 28.672h581.973333c15.018667 0 27.989333-13.312 27.989334-28.672 0-15.018667-13.312-28.672-28.330667-28.672z" fill="#FCA235" opacity=".6" p-id="1480"></path><path d="M579.584 496.981333c-39.936 2.048-73.045333-30.037333-73.045333-69.632 0-38.570667 31.061333-69.632 69.632-69.632 39.594667 0 71.338667 32.768 69.632 72.704-1.706667 35.498667-31.061333 64.853333-66.218667 66.56z" fill="#FCA235" opacity=".7" p-id="1481"></path></svg>